# xmcd CD database file
#
# Track frame offsets:
#	150
#	25164
#	41249
#	62312
#	80037
#	95948
#	113509
#	132364
#	148628
#	163019
#	174149
#	194035
#	216090
#	234491
#	264549
#	281209
#
# Disc length: 3963 seconds
#
# Revision: 0
# Processed by: cddbd v1.5.2PL0 Copyright (c) Steve Scherf et al.
# Submitted via: CDex 1.51
#
DISCID=ec0f7910
DTITLE=Various Artist - The Music of South America
DYEAR=1900
DGENRE=Salsa
TTITLE0=El Condor Pasa
TTITLE1=Virgenes Del Sol
TTITLE2=The Girl From Ipanema
TTITLE3=Tinku
TTITLE4=Tango Pampas
TTITLE5=Brazilliance
TTITLE6=Mojave
TTITLE7=Sicuri Triste
TTITLE8=Fusion Latino
TTITLE9=Laquitas
TTITLE10=Imbaya
TTITLE11=The Red Blouse
TTITLE12=Impresiones Del Viaje
TTITLE13=Spirit Of The Condor
TTITLE14=Tema Jazz
TTITLE15=A Mi Palomita
EXTD=
EXTT0=
EXTT1=
EXTT2=
EXTT3=
EXTT4=
EXTT5=
EXTT6=
EXTT7=
EXTT8=
EXTT9=
EXTT10=
EXTT11=
EXTT12=
EXTT13=
EXTT14=
EXTT15=
PLAYORDER=
